<svg width="469" height="430" viewBox="0 0 469 430" fill="none" xmlns="http://www.w3.org/2000/svg">
<path d="M264.652 27.2383V25.7081C264.652 18.975 266.84 13.16 271.214 7.65114C275.588 2.14224 281.213 -0.306152 288.087 -0.306152C294.961 -0.306152 300.897 1.83619 306.522 6.12089C311.834 10.4056 314.958 16.2205 315.271 23.2597C315.895 30.2988 313.708 36.4198 308.709 41.3166C303.71 46.2134 298.085 48.3558 291.211 48.3558L286.837 49.886L288.399 52.0284L286.837 59.9857L284.025 82.9394C284.962 83.8575 285.587 84.7757 285.587 85.6938L282.775 100.078C281.838 101.914 280.9 103.445 279.963 104.363L278.4 110.178C276.526 117.829 274.651 123.95 273.401 128.847C272.151 133.744 270.589 137.416 269.652 140.477V143.231C268.714 148.128 268.089 151.801 267.464 154.861C266.84 157.922 265.277 162.512 262.465 169.245C260.59 173.224 260.59 179.345 262.465 187.914L264.027 189.445C264.027 192.199 265.277 195.566 267.777 199.544C270.277 203.523 271.526 206.584 271.526 209.644C272.464 228.925 270.901 245.146 267.152 258.306L269.964 266.875C281.838 272.69 284.962 278.811 280.275 285.544L287.462 288.299C299.335 294.114 307.459 299.011 312.458 303.295C317.458 307.58 322.145 312.171 327.144 317.068C331.206 317.986 334.018 319.516 335.893 321.352L340.267 322.882C360.889 336.349 381.199 352.569 401.822 371.544L407.758 375.829V377.359L406.196 380.114L410.57 382.868H412.133C414.945 384.705 417.132 385.623 418.069 385.623H419.632C420.569 385.623 421.506 385.011 422.444 384.092L425.256 382.562C427.131 380.726 429.318 379.196 431.193 378.277H437.129C438.067 378.277 438.067 378.89 437.129 379.808L431.193 382.562L424.006 391.132H434.317L444.628 392.662C447.44 391.744 449.94 390.825 451.815 389.907L459.001 385.623C461.814 384.705 464.938 385.623 467.75 388.377H469.313C470.25 389.295 469.937 390.826 467.75 392.662L450.253 408.576C445.253 412.555 440.879 414.697 437.129 415.616L418.069 428.47C417.132 429.388 416.195 429.388 415.257 428.47L410.883 422.655L408.071 416.84L404.321 411.943L399.947 406.128L396.197 401.843L393.385 398.171L387.448 393.886C385.574 393.886 383.386 393.274 381.512 392.356L362.452 377.971C359.64 377.971 356.203 376.441 352.141 373.687C337.455 361.139 327.769 353.487 322.77 350.733L314.021 344.918L296.523 342.164C290.586 341.245 282.775 338.185 273.089 333.594L261.215 327.779C253.404 323.801 248.092 321.964 244.967 321.964L239.031 319.21C234.969 318.292 232.157 317.374 230.282 316.455L227.47 313.701C225.595 313.701 223.408 314.313 221.533 315.231L192.162 329.616L155.604 345.53C145.918 353.181 136.544 359.302 127.796 364.199L111.548 371.238L86.5511 388.377C84.6763 390.213 82.4891 390.213 80.6143 388.377L77.8022 391.132C74.9901 392.05 72.8029 392.662 71.8655 392.662L65.9288 395.416V398.171H63.1167L60.3046 402.455C58.4298 406.434 56.2426 408.576 54.3678 408.882C52.4931 409.495 51.2433 410.107 50.6183 411.025C49.9934 411.943 49.681 412.555 49.0561 413.167L46.2439 415.922L41.8695 418.676L35.3079 418.064L26.559 419.594L20.6224 421.124C15.623 422.043 11.8735 421.431 8.74893 418.982C5.9368 416.534 3.43712 412.861 1.56237 408.27C-0.312376 405.516 0.625003 403.068 4.3745 401.231L5.9368 399.701C6.87417 398.783 8.43647 398.171 10.3112 398.171H19.0601L30.9335 393.886L36.8702 392.356C36.8702 390.519 37.4951 388.989 38.4325 388.071C39.3698 387.153 40.9321 386.541 42.8069 386.541V385.011C41.8695 383.174 41.2446 381.032 41.2446 379.196C40.3072 377.359 39.9947 375.829 40.6197 374.911C41.2446 373.993 41.557 373.381 42.182 373.381H42.8069L44.3692 377.665C45.3066 382.562 46.8689 383.786 48.7436 381.95L50.3059 379.196C51.2433 377.359 52.8055 376.441 54.6803 376.441L57.4924 379.196L60.3046 376.441L58.7423 374.911C58.7423 373.993 59.3672 373.381 60.3046 373.381L66.2413 367.566C71.2406 361.751 76.8648 356.548 83.7389 351.651C97.4871 341.245 112.173 332.982 127.796 327.167C132.795 322.27 138.107 320.128 144.043 320.128C148.105 313.395 153.73 306.356 161.541 298.705C168.415 293.808 173.414 290.441 176.227 288.605C178.101 284.626 180.601 282.79 183.413 282.79H184.975L187.788 280.035C189.662 279.117 191.225 278.199 192.162 277.281V270.242C192.162 265.345 192.787 261.672 193.724 258.612C194.662 255.551 197.161 254.327 200.911 254.327L206.848 248.512C204.973 244.534 204.035 240.249 204.035 235.658H202.473C200.598 232.904 199.661 229.843 199.661 227.089C196.849 222.192 194.662 218.519 193.724 215.459H188.412C187.475 218.213 184.975 220.356 181.226 221.274L179.664 224.028C175.602 230.761 172.477 235.658 169.353 239.025C166.54 242.391 160.916 246.37 153.105 251.267C148.105 256.164 144.668 261.366 142.794 267.181C141.856 269.936 141.856 272.996 142.794 275.751L141.231 278.505H142.794C142.794 280.342 143.418 281.26 144.356 281.26H145.918C147.793 282.178 148.73 283.402 148.73 284.932C148.73 286.463 147.168 286.769 144.356 286.463C141.544 285.85 139.357 284.932 137.794 283.708C136.232 282.178 134.982 281.566 134.045 281.566L129.67 285.85C127.796 288.605 125.608 289.829 123.734 289.523C121.859 288.911 121.234 288.299 122.171 287.381L123.734 285.85C124.671 284.014 124.671 283.096 123.734 283.096L111.86 285.85C110.923 286.769 109.673 286.769 108.111 285.85C106.548 284.932 106.861 284.014 108.736 283.096L115.922 280.342C115.922 279.423 115.297 278.811 114.36 278.811C110.298 280.648 106.548 281.26 102.486 280.342L95.2999 278.811L94.675 278.505C94.675 277.587 95.2999 276.975 96.2373 276.975C100.299 277.893 104.986 277.587 110.923 275.445L121.234 271.16L133.107 258.306L134.67 255.551C138.732 247.9 142.794 240.861 147.168 234.74C151.542 228.619 156.229 223.416 161.229 219.744L162.791 213.929C164.666 209.95 166.853 206.89 168.728 203.829C170.602 201.075 173.102 197.096 175.914 192.199L180.289 186.384C184.351 180.569 188.725 177.815 193.412 177.815L197.786 173.53C198.724 172.612 199.349 171.082 199.349 169.245L202.161 166.491L200.598 164.961C194.662 160.064 191.85 155.779 191.85 152.107C190.912 145.374 193.099 139.559 198.411 134.968C203.723 130.071 209.035 127.929 214.659 128.541C220.283 129.153 224.033 130.683 227.157 133.438L229.969 136.192C230.907 136.192 231.532 136.804 231.532 137.722L237.468 140.477V144.761C239.343 146.598 240.281 148.128 240.281 149.046C242.155 146.292 245.28 142.925 249.029 138.947L256.216 115.993C256.216 112.014 257.153 108.342 259.028 104.363L261.84 100.078V97.3237L266.215 80.1849H269.027L273.401 63.0462C274.339 60.2917 274.339 56.9252 273.401 52.9465L267.464 38.5622L264.652 27.2383Z" fill="white"/>
</svg>
